<?xml version="1.0" standalone="no"?>
<!DOCTYPE svg PUBLIC "-//W3C//DTD SVG 20010904//EN"
 "http://www.w3.org/TR/2001/REC-SVG-20010904/DTD/svg10.dtd">
<svg version="1.0" xmlns="http://www.w3.org/2000/svg"
 width="300.000000pt" height="300.000000pt" viewBox="0 0 300.000000 300.000000"
 preserveAspectRatio="xMidYMid meet">
<metadata>
Created by potrace 1.14, written by Peter Selinger 2001-2017
</metadata>
<g transform="translate(0.000000,300.000000) scale(0.100000,-0.100000)"
fill="#000000" stroke="none">
<path d="M1387 2905 c-43 -15 -117 -61 -117 -73 0 -4 -46 -7 -102 -7 l-103 0
-5 -30 c-4 -25 -11 -30 -45 -37 -142 -28 -105 -82 75 -109 l83 -13 -56 -52
c-30 -28 -69 -59 -86 -67 -29 -15 -32 -14 -42 5 -38 72 -129 94 -210 52 -18
-9 -40 -25 -48 -35 -16 -19 -17 -19 -73 1 -103 36 -181 20 -220 -47 -40 -69
-19 -159 46 -190 35 -16 36 -18 37 -77 2 -104 -2 -139 -17 -153 -8 -8 -14 -17
-15 -21 -10 -77 -16 -263 -8 -268 4 -2 -10 -41 -32 -87 -41 -85 -42 -87 -72
-130 -14 -19 -19 -51 -23 -138 -3 -63 -7 -115 -9 -118 -2 -2 0 -12 5 -21 7
-14 -2 -41 -36 -111 -25 -51 -52 -98 -60 -103 -16 -12 -23 -59 -28 -199 l-4
-97 69 0 c66 0 74 4 71 32 -1 3 -4 58 -6 121 -3 64 -10 124 -16 134 -10 15 -4
35 30 110 24 51 47 90 52 87 4 -3 27 -45 49 -92 33 -72 38 -90 29 -106 -13
-20 -19 -72 -23 -198 l-2 -86 30 -4 c16 -2 48 -1 70 2 l40 5 -2 75 c-2 115
-11 186 -23 207 -10 15 -4 35 35 116 l48 98 44 -97 c37 -83 42 -101 33 -123
-11 -29 -17 -79 -22 -196 -3 -91 -1 -93 92 -87 l48 4 -4 91 c-6 148 -12 188
-28 200 -8 7 -31 44 -50 83 -49 98 -57 122 -45 129 5 4 7 10 4 15 -3 5 -7 64
-10 132 -4 101 -8 126 -22 138 -10 8 -37 56 -59 105 -38 83 -41 97 -43 185 -3
155 -13 220 -32 220 -5 0 -9 47 -9 105 0 98 1 105 20 105 10 0 38 18 61 40
l42 40 51 -18 c114 -40 205 -20 241 54 15 31 33 48 73 69 28 15 80 55 113 90
l61 62 272 -2 271 -1 71 -71 c43 -42 86 -75 108 -83 29 -9 41 -22 58 -57 38
-81 132 -102 257 -58 l43 15 32 -34 c18 -19 44 -38 59 -41 15 -4 27 -10 28
-14 1 -3 2 -46 3 -95 1 -71 -2 -94 -16 -111 -13 -16 -19 -51 -23 -136 -4 -63
-8 -120 -11 -128 -3 -8 0 -17 6 -21 13 -8 -72 -197 -96 -215 -19 -13 -24 -54
-28 -211 -2 -105 -4 -115 -40 -190 -20 -43 -46 -89 -57 -100 -21 -23 -25 -45
-30 -204 l-3 -85 70 -3 71 -3 -3 88 c-5 135 -12 196 -25 204 -9 5 -5 23 15 66
15 32 35 75 44 95 9 21 20 38 23 38 3 0 25 -41 49 -91 38 -81 41 -93 30 -117
-6 -15 -14 -74 -16 -132 -2 -58 -5 -114 -7 -125 -2 -16 5 -21 33 -25 19 -3 52
-3 72 -1 l37 3 -4 92 c-6 141 -11 186 -22 197 -8 8 1 36 29 97 22 48 43 91 48
96 4 4 29 -36 55 -90 30 -64 42 -100 35 -104 -15 -9 -30 -129 -27 -215 2 -78
8 -83 93 -76 l44 3 -5 117 c-3 64 -5 126 -5 138 0 12 -7 26 -16 31 -19 11
-114 203 -106 217 7 11 6 117 -2 202 -5 48 -14 73 -41 113 -19 29 -35 56 -35
62 0 5 -12 34 -26 63 -22 44 -25 57 -15 69 7 8 9 20 5 27 -4 7 -8 44 -10 83
-6 126 -10 155 -26 173 -12 14 -16 41 -16 113 l-1 95 32 16 c95 47 100 175 8
236 -43 29 -103 30 -173 3 -50 -19 -53 -19 -73 -2 -60 54 -132 72 -190 48 -17
-7 -43 -28 -59 -46 -27 -33 -28 -33 -59 -18 -34 16 -127 95 -127 107 0 3 43
14 95 23 111 19 151 39 135 68 -9 17 -58 37 -110 45 -8 1 -15 11 -16 21 -1 10
-2 24 -3 29 0 6 -41 10 -99 10 -95 0 -98 1 -136 33 -22 17 -56 37 -75 43 -55
17 -200 20 -244 4z m-460 -380 c37 -32 21 -43 -59 -39 -113 5 -127 15 -63 48
44 23 89 20 122 -9z m1273 10 c43 -22 39 -45 -7 -46 -85 -3 -134 -1 -141 5 -4
4 6 19 21 32 33 28 83 32 127 9z m-1554 -40 c33 -13 41 -20 37 -36 -3 -10 -8
-20 -12 -20 -3 -1 -21 -3 -40 -5 -45 -5 -77 -27 -96 -64 -18 -35 -26 -37 -49
-11 -27 29 -28 85 -4 116 37 47 85 53 164 20z m1851 4 c25 -15 48 -62 46 -92
-2 -21 -40 -67 -55 -67 -5 0 -14 13 -19 29 -14 39 -51 62 -99 63 -29 0 -40 5
-48 23 -10 21 -7 24 41 43 58 22 101 22 134 1z m-1689 -55 c64 -9 104 -9 125
-1 31 12 16 -25 -20 -49 -32 -22 -40 -22 -111 -10 -69 13 -91 27 -80 55 5 15
13 21 23 17 8 -3 37 -8 63 -12z m1472 -3 c14 -28 14 -28 -27 -42 -80 -27 -137
-28 -171 -2 -43 32 -38 41 25 42 58 0 134 9 142 17 9 9 21 3 31 -15z m-1652
-68 c-2 -10 -7 -16 -12 -15 -5 2 -12 -2 -16 -8 -4 -7 -13 -9 -20 -5 -8 5 -7
12 6 26 22 24 47 25 42 2z m1776 7 c23 -9 37 -40 18 -40 -13 0 -52 30 -52 41
0 11 3 11 34 -1z m-1806 -711 c35 -76 38 -89 25 -101 -10 -11 -15 -49 -18
-138 -3 -68 -7 -125 -10 -128 -3 -3 0 -10 5 -17 6 -8 -1 -34 -23 -80 l-33 -68
-31 71 c-18 40 -29 74 -25 76 11 7 -6 258 -19 283 -10 18 -7 32 16 80 15 32
34 73 42 92 8 19 18 30 23 25 4 -5 26 -48 48 -95z m1907 10 c36 -74 43 -95 33
-106 -14 -17 -17 -50 -22 -209 -2 -90 -7 -121 -26 -163 -13 -28 -27 -51 -30
-51 -4 0 -19 26 -33 58 -20 47 -25 74 -26 152 -2 142 -7 188 -21 205 -7 9 -9
22 -4 32 4 10 8 20 8 23 3 13 69 150 73 150 2 0 24 -41 48 -91z"/>
<path d="M1465 2493 c11 -27 13 -77 4 -89 -9 -12 -73 -11 -101 1 -15 6 -18 1
-18 -33 0 -40 13 -64 23 -39 5 12 74 16 93 4 19 -11 5 -176 -15 -178 -3 0 -46
-2 -95 -4 -93 -5 -152 -10 -226 -20 -25 -3 -61 -8 -80 -10 -84 -10 -115 -16
-120 -25 -8 -13 -5 -1041 4 -1080 28 -123 131 -192 322 -215 88 -10 153 -23
182 -38 27 -12 27 -13 30 -136 l3 -124 -48 6 c-26 3 -106 17 -178 31 -100 19
-153 24 -230 22 -115 -4 -139 -9 -217 -40 l-57 -23 -14 21 c-8 11 -26 44 -40
72 -33 65 -55 72 -124 38 -59 -28 -89 -69 -102 -137 -18 -100 72 -223 170
-231 29 -2 65 -36 39 -36 -6 0 -10 -12 -8 -27 3 -28 4 -28 67 -25 88 3 138 18
144 42 3 13 -7 38 -29 70 l-33 49 57 16 c58 17 213 23 282 11 79 -15 148 -26
190 -31 25 -3 54 -8 65 -10 11 -2 30 -4 43 -4 20 -1 22 -6 22 -65 0 -57 13
-142 27 -186 8 -24 33 88 38 169 2 40 5 74 7 76 2 1 30 5 63 9 33 3 95 13 136
21 160 30 279 36 371 19 98 -19 105 -24 73 -58 -26 -29 -39 -63 -33 -92 4 -21
85 -41 159 -40 39 1 44 4 47 25 2 13 -2 27 -10 32 -26 16 9 35 73 38 9 1 37
19 62 41 126 111 96 300 -54 340 -50 14 -68 1 -106 -75 -38 -75 -38 -75 -82
-54 -21 10 -49 20 -62 23 -13 3 -46 9 -74 15 -50 10 -219 8 -265 -3 -14 -3
-36 -8 -50 -10 -14 -2 -65 -12 -115 -21 -111 -21 -135 -24 -136 -16 0 3 -1 58
-2 121 -2 95 1 118 15 132 16 16 75 31 168 43 228 30 322 88 349 215 7 33 11
233 11 570 0 488 -1 520 -17 521 -10 0 -27 2 -38 5 -11 2 -40 6 -65 9 -25 3
-54 8 -65 10 -35 7 -147 16 -244 19 -109 5 -113 8 -121 99 -7 81 0 95 49 95
22 0 43 -3 46 -9 14 -22 25 -6 25 37 0 42 -2 45 -16 33 -9 -7 -36 -14 -60 -14
l-44 -1 0 46 c0 25 5 51 12 58 9 9 1 12 -36 12 -42 0 -47 -2 -41 -17z"/>
</g>
</svg>
